<svg id="SvgjsSvg1001" width="288" height="288" xmlns="http://www.w3.org/2000/svg" version="1.1" xmlns:xlink="http://www.w3.org/1999/xlink" xmlns:svgjs="http://svgjs.com/svgjs"><defs id="SvgjsDefs1002"></defs><g id="SvgjsG1008"><svg xmlns="http://www.w3.org/2000/svg" enable-background="new 0 0 496.081 496.081" viewBox="0 0 496.081 496.081" width="288" height="288"><path d="M426.801 75.364c17.369-16.942 17.705-44.75.781-62.102-16.924-17.369-44.696-17.722-62.045-.8-17.351 16.924-17.742 44.697-.8 62.048C381.607 91.898 409.432 92.251 426.801 75.364zM475.919 453.714c-4.384-9.529-15.642-13.729-25.229-9.326-19.022 8.75-39.124 20.1-69.05 9.066l-48.113-17.815 28.367-104.959c2.527-9.362.131-19.375-6.369-26.564l-60.319-66.804 40.163-39.121 6.092 19.729c2.359 7.672 8.451 13.636 16.162 15.847l75.867 21.751c12.541 3.605 25.766-3.602 29.406-16.29 3.621-12.633-3.678-25.805-16.293-29.406l-63.492-18.207-9.588-31.023c12.781-14.696 12.523-36.894-1.301-51.085l-11.256-11.555c-5.072-5.202-13.561-9.53-17.798-10.607l-93.05-23.854c-8.47-2.191-17.518.502-23.424 6.966l-55.99 61.025c-8.879 9.679-8.229 24.706 1.45 33.585 9.659 8.899 24.745 8.193 33.585-1.448l46.367-50.527 30.986 7.951-66.206 64.498c-11.016 9.843-19.396 22.512-13.543 36.427l26.174 62.29-126.933 65.926-1.376-.501c-29.89-11.092-37.748-32.787-46.497-51.811-4.384-9.529-15.642-13.727-25.227-9.325-9.547 4.384-13.729 15.681-9.325 25.228 8.749 19.023 22.067 54.634 67.86 71.576L368.453 489.12c45.773 17.017 79.118-1.43 98.142-10.179C476.143 474.557 480.323 463.261 475.919 453.714zM279.155 322.804c3.773-1.949 6.744-4.774 9.196-7.934l14.397 15.941-22.996 84.933-104.939-38.825L279.155 322.804z" fill="#ffbf66" class="color000 svgShape"></path></svg></g></svg>